<svg xmlns="http://www.w3.org/2000/svg" viewBox="0 0 704 704" role="img" aria-label="uny favicon">
  <title>uny favicon</title>
  <path fill="#4618B8" d="M361.1 156.38V426.0H311.18Q296.1 426.0 291.42 412.48L286.74 396.88Q278.94 404.42 270.62 410.53Q262.3 416.64 252.81 420.93Q243.32 425.22 232.26999999999998 427.69000000000005Q221.22 430.16 208.22 430.16Q186.12 430.16 169.09 422.49Q152.06 414.82 140.36 401.03999999999996Q128.66 387.26 122.68 368.53999999999996Q116.7 349.82 116.7 327.46V156.38H197.3V327.46Q197.3 347.48 206.4 358.4Q215.5 369.32 233.18 369.32Q246.44 369.32 258.01 363.73Q269.58000000000004 358.14 280.5 348.52V156.38Z"/>
</svg>
